<?xml version="1.0" ?><svg data-name="Layer 1" id="Layer_1" viewBox="0 0 32 32" xmlns="http://www.w3.org/2000/svg" xmlns:xlink="http://www.w3.org/1999/xlink"><defs><style>.cls-1{fill:url(#linear-gradient);}.cls-2{fill:url(#linear-gradient-2);}.cls-3{fill:url(#linear-gradient-3);}.cls-4{fill:url(#linear-gradient-4);}.cls-5{fill:url(#linear-gradient-5);}.cls-6{fill:url(#linear-gradient-6);}.cls-7{fill:url(#linear-gradient-7);}.cls-8{fill:#577590;}</style><linearGradient gradientUnits="userSpaceOnUse" id="linear-gradient" x1="8.23" x2="28.77" y1="7.23" y2="27.77"><stop offset="0" stop-color="#f9dcc4"/><stop offset="0.32" stop-color="#f8d9c0"/><stop offset="0.64" stop-color="#f4cfb3"/><stop offset="0.98" stop-color="#eebf9f"/><stop offset="1" stop-color="#edbe9d"/></linearGradient><linearGradient gradientUnits="userSpaceOnUse" id="linear-gradient-2" x1="14.05" x2="19.92" y1="14.99" y2="14.99"><stop offset="0" stop-color="#f8edeb"/><stop offset="0.02" stop-color="#f8edeb"/><stop offset="1" stop-color="#e0dada"/></linearGradient><linearGradient id="linear-gradient-3" x1="17.08" x2="22.95" xlink:href="#linear-gradient-2" y1="14.99" y2="14.99"/><linearGradient gradientUnits="userSpaceOnUse" id="linear-gradient-4" x1="16.73" x2="20.27" y1="15.73" y2="19.27"><stop offset="0" stop-color="#70d6ff"/><stop offset="0.21" stop-color="#68d5ff"/><stop offset="0.54" stop-color="#51d1fe"/><stop offset="0.96" stop-color="#2bcbfc"/><stop offset="1" stop-color="#27cafc"/></linearGradient><linearGradient id="linear-gradient-5" x1="19.59" x2="22.41" xlink:href="#linear-gradient-4" y1="20.59" y2="23.41"/><linearGradient id="linear-gradient-6" x1="14.59" x2="17.41" xlink:href="#linear-gradient-4" y1="20.59" y2="23.41"/><linearGradient gradientUnits="userSpaceOnUse" id="linear-gradient-7" x1="4" x2="22.65" y1="14.5" y2="14.5"><stop offset="0" stop-color="#f9dcc4"/><stop offset="0.01" stop-color="#f8dbc2"/><stop offset="0.12" stop-color="#f3ceb1"/><stop offset="0.26" stop-color="#f0c5a6"/><stop offset="0.46" stop-color="#eebf9f"/><stop offset="1" stop-color="#edbe9d"/></linearGradient></defs><rect class="cls-1" height="25" rx="2.5" width="19" x="9" y="5"/><path class="cls-2" d="M19.86,17.35,16.67,11a.54.54,0,0,0-.33-.26.5.5,0,0,0-.41.08l-.81.57a2.5,2.5,0,0,0-.62,3.48L17.37,19a.46.46,0,0,0,.32.2h.09a.52.52,0,0,0,.29-.09L19.7,18A.48.48,0,0,0,19.86,17.35Z"/><path class="cls-3" d="M21.89,11.43l-.82-.57a.5.5,0,0,0-.41-.08.54.54,0,0,0-.33.26l-3.19,6.31a.48.48,0,0,0,.16.63l1.63,1.15a.52.52,0,0,0,.29.09.49.49,0,0,0,.41-.21l2.87-4.1A2.51,2.51,0,0,0,21.89,11.43Z"/><circle class="cls-4" cx="18.5" cy="17.5" r="2.5"/><circle class="cls-5" cx="21" cy="22" r="2"/><circle class="cls-6" cx="16" cy="22" r="2"/><path class="cls-7" d="M9,7.5A2.5,2.5,0,0,1,11.5,5H22V4.5a1.42,1.42,0,0,0-.19-.73.5.5,0,0,1,.84-.53A2.49,2.49,0,0,0,20.71,2a.49.49,0,0,1-.09,1h-2a.5.5,0,0,1,0-1h-2a.5.5,0,0,1,0,1h-2a.5.5,0,0,1,0-1h-2a.5.5,0,0,1,0,1h-2a.5.5,0,0,1,0-1h-2a.5.5,0,0,1,0,1h-2a.5.5,0,0,1,0-1h0A2.51,2.51,0,0,0,4.41,3.13a.5.5,0,0,1,.83.56A1.45,1.45,0,0,0,5,4.5v.87a.5.5,0,1,1-1,0v2a.5.5,0,1,1,1,0v2a.5.5,0,0,1-1,0v2a.5.5,0,0,1,1,0v2a.5.5,0,1,1-1,0v2a.5.5,0,0,1,1,0v2a.5.5,0,0,1-1,0v2a.5.5,0,0,1,1,0v2a.5.5,0,0,1-1,0v2a.5.5,0,0,1,1,0v1a1.51,1.51,0,0,0,.18.72A.49.49,0,0,1,5,25.9a.53.53,0,0,1-.24.06.49.49,0,0,1-.41-.23A2.5,2.5,0,0,0,6.28,27a.49.49,0,0,1,.12-1h1a.5.5,0,1,1,0,1H9Z"/><path class="cls-8" d="M21,20a2,2,0,0,0-.49.07l-.45-.64A2.46,2.46,0,0,0,21,17.5a2.58,2.58,0,0,0,0-.39l1.54-2.2a2.51,2.51,0,0,0-.61-3.48l-.82-.57a.5.5,0,0,0-.41-.08.54.54,0,0,0-.33.26L18.5,14.66,16.67,11a.54.54,0,0,0-.33-.26.5.5,0,0,0-.41.08l-.81.57a2.5,2.5,0,0,0-.62,3.48L16,17.11a2.58,2.58,0,0,0,0,.39,2.46,2.46,0,0,0,.94,1.93l-.45.64a2,2,0,1,0,.88.48l.46-.65a2.29,2.29,0,0,0,1.34,0l.46.65A2,2,0,1,0,21,20Zm-5,3a1,1,0,1,1,1-1A1,1,0,0,1,16,23Zm5-11,.35.24a1.5,1.5,0,0,1,.37,2.09L20.5,16a2.47,2.47,0,0,0-1.13-.86Zm-5.64,2.33a1.5,1.5,0,0,1,.37-2.09L16,12l1.59,3.15A2.47,2.47,0,0,0,16.5,16ZM17,17.5A1.5,1.5,0,0,1,18.4,16h.2A1.5,1.5,0,1,1,17,17.5ZM21,23a1,1,0,1,1,1-1A1,1,0,0,1,21,23Z"/></svg>